<svg xmlns="http://www.w3.org/2000/svg" viewBox="-28 -14 316 282">
<defs><filter id="sh" x="-30%" y="-20%" width="160%" height="170%"><feDropShadow dx="0" dy="13" stdDeviation="9" flood-color="#18221c" flood-opacity="0.17"></feDropShadow></filter></defs>
<g filter="url(#sh)"><path d="M38 88 L38 134 L130 186 L130 140 Z" fill="#2E9457" stroke="#2E9457" stroke-width="12" stroke-linejoin="round"></path><path d="M222 88 L222 134 L130 186 L130 140 Z" fill="#46B673" stroke="#46B673" stroke-width="12" stroke-linejoin="round"></path><path d="M130 36 L222 88 L130 140 L38 88 Z" fill="#ffffff" stroke="#ffffff" stroke-width="12" stroke-linejoin="round"></path><path d="M40 89 L130 139 L220 89" fill="none" stroke="rgba(0,0,0,0.05)" stroke-width="2.4"></path><g style="color:#1F7A47" transform="matrix(92,-52,92,52,38,88) translate(0.135,0.135) scale(0.011406)"><rect x="11" y="17" width="42" height="30" rx="6" fill="currentColor"></rect><circle cx="22" cy="28" r="4.6" fill="#fff"></circle><rect x="31" y="24" width="16" height="3.6" rx="1.8" fill="#fff"></rect><rect x="31" y="31" width="11" height="3.6" rx="1.8" fill="#fff" opacity=".7"></rect><rect x="17" y="38" width="30" height="3.6" rx="1.8" fill="#fff" opacity=".45"></rect></g></g>
</svg>