<svg xmlns="http://www.w3.org/2000/svg" viewBox="-28 -14 316 282">
<defs><filter id="sh" x="-30%" y="-20%" width="160%" height="170%"><feDropShadow dx="0" dy="13" stdDeviation="9" flood-color="#18221c" flood-opacity="0.17"></feDropShadow></filter></defs>
<g filter="url(#sh)"><path d="M38 88 L38 134 L130 186 L130 140 Z" fill="#E0493B" stroke="#E0493B" stroke-width="12" stroke-linejoin="round"></path><path d="M222 88 L222 134 L130 186 L130 140 Z" fill="#FF7062" stroke="#FF7062" stroke-width="12" stroke-linejoin="round"></path><path d="M130 36 L222 88 L130 140 L38 88 Z" fill="#ffffff" stroke="#ffffff" stroke-width="12" stroke-linejoin="round"></path><path d="M40 89 L130 139 L220 89" fill="none" stroke="rgba(0,0,0,0.05)" stroke-width="2.4"></path><g style="color:#D6392B" transform="matrix(92,-52,92,52,38,88) translate(0.135,0.135) scale(0.011406)"><g fill="currentColor"><circle cx="20" cy="32" r="6.4"></circle><circle cx="44" cy="18" r="6.4"></circle><circle cx="44" cy="46" r="6.4"></circle></g><g stroke="currentColor" stroke-width="3.6" stroke-linecap="round"><line x1="25.5" y1="29" x2="38.5" y2="21"></line><line x1="25.5" y1="35" x2="38.5" y2="43"></line></g></g></g>
</svg>