<svg xmlns="http://www.w3.org/2000/svg" viewBox="-28 -14 316 282">
<defs><filter id="sh" x="-30%" y="-20%" width="160%" height="170%"><feDropShadow dx="0" dy="13" stdDeviation="9" flood-color="#18221c" flood-opacity="0.17"></feDropShadow></filter></defs>
<g filter="url(#sh)"><path d="M38 88 L38 134 L130 186 L130 140 Z" fill="#4360E0" stroke="#4360E0" stroke-width="12" stroke-linejoin="round"></path><path d="M222 88 L222 134 L130 186 L130 140 Z" fill="#637EF7" stroke="#637EF7" stroke-width="12" stroke-linejoin="round"></path><path d="M130 36 L222 88 L130 140 L38 88 Z" fill="#ffffff" stroke="#ffffff" stroke-width="12" stroke-linejoin="round"></path><path d="M40 89 L130 139 L220 89" fill="none" stroke="rgba(0,0,0,0.05)" stroke-width="2.4"></path><g style="color:#3550CE" transform="matrix(92,-52,92,52,38,88) translate(0.135,0.135) scale(0.011406)"><rect x="13" y="34" width="9" height="18" rx="3" fill="currentColor"></rect><rect x="27.5" y="25" width="9" height="27" rx="3" fill="currentColor"></rect><rect x="42" y="16" width="9" height="36" rx="3" fill="currentColor"></rect><path d="M16 24 L31 18 L45 11" fill="none" stroke="currentColor" stroke-width="3" stroke-linecap="round" stroke-linejoin="round" opacity=".5"></path><circle cx="45" cy="11" r="3.4" fill="currentColor" opacity=".5"></circle></g></g>
</svg>